<!-- Project 1: AI-Powered API System -->
<svg width="800" height="450" xmlns="http://www.w3.org/2000/svg">
  <defs>
    <linearGradient id="bg1" x1="0%" y1="0%" x2="100%" y2="100%">
      <stop offset="0%" style="stop-color:#1a1a1a;stop-opacity:1" />
      <stop offset="100%" style="stop-color:#000000;stop-opacity:1" />
    </linearGradient>
  </defs>
  <rect width="800" height="450" fill="url(#bg1)"/>
  
  <!-- Code editor mockup -->
  <rect x="50" y="50" width="700" height="350" rx="10" fill="#000000" opacity="0.8"/>
  <rect x="50" y="50" width="700" height="40" rx="10" fill="#2a2a2a"/>
  <circle cx="70" cy="70" r="6" fill="#ff5f56"/>
  <circle cx="90" cy="70" r="6" fill="#ffbd2e"/>
  <circle cx="110" cy="70" r="6" fill="#27c93f"/>
  
  <!-- Code lines -->
  <rect x="70" y="110" width="150" height="10" rx="5" fill="#ff6b00" opacity="0.6"/>
  <rect x="70" y="140" width="200" height="10" rx="5" fill="#b0b0b0" opacity="0.5"/>
  <rect x="90" y="170" width="180" height="10" rx="5" fill="#b0b0b0" opacity="0.5"/>
  <rect x="90" y="200" width="220" height="10" rx="5" fill="#b0b0b0" opacity="0.5"/>
  <rect x="70" y="230" width="190" height="10" rx="5" fill="#b0b0b0" opacity="0.5"/>
  
  <!-- API icon -->
  <circle cx="600" cy="250" r="80" fill="none" stroke="#ff6b00" stroke-width="3" opacity="0.6"/>
  <circle cx="600" cy="250" r="60" fill="none" stroke="#ff6b00" stroke-width="2" opacity="0.4"/>
  <text x="600" y="260" font-family="Arial, sans-serif" font-size="40" fill="#ff6b00" text-anchor="middle" font-weight="bold">API</text>
</svg>
